<?xml version="1.0" encoding="utf-8"?>
<!-- Generator: $$$/GeneralStr/196=Adobe Illustrator 27.6.0, SVG Export Plug-In . SVG Version: 6.00 Build 0)  -->
<svg version="1.1" id="Capa_1" xmlns="http://www.w3.org/2000/svg" xmlns:xlink="http://www.w3.org/1999/xlink" x="0px" y="0px"
	 viewBox="0 0 2927.4 561.5" style="enable-background:new 0 0 2927.4 561.5;" xml:space="preserve">
<style type="text/css">
	.st0{fill:#1A0028;}
</style>
<g>
	<g>
		<path class="st0" d="M942.7,337.3h153.7c-3.2,21-7.2,37.7-11.7,50.1c-4.6,12.4-11.5,24.8-20.6,37.2c-30.2,38.3-72.5,57.4-127,57.4
			c-51.8,0-96.3-17-133.5-51c-43.1-39.9-64.7-90-64.7-150.4c0-52.8,16.7-98.1,50.1-135.9c38.3-44.2,87.4-66.3,147.2-66.3
			c28.6,0,53.9,5.4,76,16.2c22.1,10.8,46.1,29.7,72,56.6l59-56.6c-17.8-17.2-30.5-29.1-38-35.6c-48.5-39.4-105.1-59-169.8-59
			C884.1,0,836.7,12.7,793,38c-42.6,24.8-76.3,58.2-101.1,100.3c-25.3,43.7-38,91.1-38,142.4c0,51.2,12.9,98.7,38.8,142.4
			c24.8,42.1,58.5,75.5,101.1,100.3c44.2,25.3,92.2,38,144,38c68.5,0,124.8-21,169-63.1c50.7-48,76-114,76-198.2v-40.4H942.7V337.3z
			"/>
		<rect x="1211.2" y="10.5" class="st0" width="80.9" height="539.5"/>
		<path class="st0" d="M1567.8,378.5c0,35.1-4.3,60.7-12.9,76.8c-11.3,21-32.4,31.5-63.1,31.5c-30.7,0-51.8-10.5-63.1-31.5
			c-8.6-16.2-12.9-41.8-12.9-76.8V191.7h-80.9V385c0,45.8,7.3,81.2,21.8,106c11.3,20,27.5,36.1,48.5,48.5
			c14.8,8.9,30.3,15,46.4,18.5c6.3,1.3,12.8,2.1,19.3,2.7c0.6,0.1,1,0.2,1.7,0.3c9.8,0.7,19,0.7,27.2,0.4l0,0
			c12.2,0,24-1.5,35.5-4.2c2.1-0.4,3.3-0.7,3.3-0.7l0-0.1c13.8-3.6,27-9.2,39.7-16.8c21-12.4,37.2-28.6,48.5-48.5
			c14.6-24.8,21.8-60.1,21.8-106V191.7h-80.9V378.5z"/>
		<path class="st0" d="M1948.8,202.2c-24.3-14.6-50.7-21.8-79.3-21.8c-34.5,0-64.7,12.4-90.6,37.2v-25.9h-80.9V550h80.9V370.4
			c0-37.7,4.3-64.7,12.9-80.9c6.5-10.2,16-18.6,28.7-25.1c12.7-6.5,26.6-9.7,41.7-9.7c30.7,0,51.8,10.5,63.1,31.5
			c8.6,15.6,12.9,41.3,12.9,76.8V550h80.9V356.7c0-45.8-7.3-81.1-21.8-106C1986,230.8,1969.8,214.6,1948.8,202.2z"/>
		<path class="st0" d="M2330.5,222.4c-36.7-28-73.3-42.1-110-42.1c-46.4,0-86.8,16.5-121.3,49.3c-40.4,38.3-60.7,85.2-60.7,140.7
			c0,48,15.6,90.3,46.9,127c36.7,42.6,81.7,63.9,135.1,63.9c37.2,0,73.9-14,110-42.1V550h80.9V10.5h-80.9V222.4z M2305.5,450.5
			c-19.4,24.8-45.6,37.2-78.5,37.2c-29.7,0-54.2-9.4-73.6-28.3c-22.1-22.1-33.2-51.8-33.2-89c0-32.3,8.6-59,25.9-80.1
			c19.9-24.8,46.9-37.2,80.9-37.2c28.6,0,52.3,9.7,71.2,29.1c22.1,21.6,33.2,51,33.2,88.2C2331.4,402.8,2322.7,429.5,2305.5,450.5z"
			/>
		<rect x="2454.3" y="191.7" class="st0" width="80.1" height="358.3"/>
		<path class="st0" d="M2846.6,191.7v30.7c-36.7-28-73.3-42.1-110-42.1c-46.4,0-86.8,16.5-121.3,49.3
			c-40.4,38.3-60.7,85.2-60.7,140.7c0,48,15.6,90.3,46.9,127c36.7,42.6,81.7,63.9,135.1,63.9c37.2,0,73.9-14,110-42.1V550h80.9
			V191.7H2846.6z M2822.3,451.3c-20,24.3-46.4,36.4-79.3,36.4c-29.7,0-54.2-9.4-73.6-28.3c-22.1-22.1-33.2-51.8-33.2-89
			c0-32.3,8.6-59,25.9-80.1c19.9-24.8,46.9-37.2,80.9-37.2c29.1,0,53.1,9.7,72,29.1c22.1,21.6,33.2,51,33.2,88.2
			C2848.2,402.8,2839.5,429.8,2822.3,451.3z"/>
	</g>
	<path class="st0" d="M539.5,550c-137.9,0-249.6-111.8-249.6-249.6l249.6,0L539.5,550z"/>
	<path class="st0" d="M539.5,10.5c0,137.9-111.8,249.6-249.6,249.6V10.5H539.5z"/>
	<path class="st0" d="M249.6,300.3C111.8,300.3,0,412.1,0,550l249.6,0L249.6,300.3z"/>
	<path class="st0" d="M249.6,260.2C249.6,122.3,137.9,10.5,0,10.5l0,249.6L249.6,260.2z"/>
</g>
</svg>
